<svg width="133" height="37" viewBox="0 0 133 37" fill="none" xmlns="http://www.w3.org/2000/svg">
<path d="M40.6375 21.9758L44.3828 21.4047C44.5422 22.1307 44.8654 22.6841 45.3523 23.0648C45.8393 23.4367 46.5211 23.6227 47.3977 23.6227C48.3628 23.6227 49.0888 23.4456 49.5758 23.0914C49.9034 22.8435 50.0672 22.5115 50.0672 22.0953C50.0672 21.812 49.9786 21.5773 49.8016 21.3914C49.6156 21.2143 49.1995 21.0505 48.5531 20.9C45.5427 20.2359 43.6346 19.6294 42.8289 19.0805C41.7133 18.319 41.1555 17.2609 41.1555 15.9062C41.1555 14.6844 41.638 13.6573 42.6031 12.825C43.5682 11.9927 45.0646 11.5766 47.0922 11.5766C49.0224 11.5766 50.4568 11.8909 51.3953 12.5195C52.3339 13.1482 52.9802 14.0779 53.3344 15.3086L49.8148 15.9594C49.6643 15.4104 49.3766 14.9898 48.9516 14.6977C48.5354 14.4055 47.9378 14.2594 47.1586 14.2594C46.1758 14.2594 45.4719 14.3966 45.0469 14.6711C44.7635 14.8659 44.6219 15.1182 44.6219 15.4281C44.6219 15.6937 44.7458 15.9195 44.9938 16.1055C45.3302 16.3534 46.4901 16.7031 48.4734 17.1547C50.4656 17.6062 51.8557 18.1596 52.6438 18.8148C53.4229 19.4789 53.8125 20.4042 53.8125 21.5906C53.8125 22.8833 53.2724 23.9945 52.1922 24.9242C51.112 25.8539 49.5138 26.3188 47.3977 26.3188C45.4763 26.3188 43.9534 25.9292 42.8289 25.15C41.7133 24.3708 40.9828 23.3128 40.6375 21.9758ZM65.3974 26V23.8883C64.8838 24.6409 64.2065 25.2341 63.3653 25.668C62.533 26.1018 61.652 26.3188 60.7224 26.3188C59.775 26.3188 58.925 26.1107 58.1724 25.6945C57.4198 25.2784 56.8752 24.694 56.5388 23.9414C56.2023 23.1888 56.0341 22.1484 56.0341 20.8203V11.8953H59.7661V18.3766C59.7661 20.3599 59.8325 21.5773 59.9653 22.0289C60.107 22.4716 60.3593 22.8258 60.7224 23.0914C61.0854 23.3482 61.5458 23.4766 62.1036 23.4766C62.7411 23.4766 63.3122 23.3039 63.8169 22.9586C64.3216 22.6044 64.6669 22.1706 64.8528 21.657C65.0388 21.1346 65.1317 19.8641 65.1317 17.8453V11.8953H68.8638V26H65.3974ZM75.3354 26H71.6033V11.8953H75.0697V13.9008C75.663 12.9534 76.1942 12.3292 76.6635 12.0281C77.1416 11.7271 77.6817 11.5766 78.2838 11.5766C79.1338 11.5766 79.9528 11.8112 80.7408 12.2805L79.5854 15.5344C78.9567 15.1271 78.3723 14.9234 77.8322 14.9234C77.3098 14.9234 76.8671 15.0695 76.5041 15.3617C76.1411 15.6451 75.8533 16.163 75.6408 16.9156C75.4372 17.6682 75.3354 19.2443 75.3354 21.6437V26ZM89.5499 21.5109L93.2687 22.1352C92.7905 23.4987 92.0335 24.5391 90.9976 25.2562C89.9705 25.9646 88.6822 26.3188 87.1327 26.3188C84.6801 26.3188 82.865 25.5174 81.6874 23.9148C80.7577 22.631 80.2929 21.0107 80.2929 19.0539C80.2929 16.7164 80.9038 14.888 82.1257 13.5687C83.3476 12.2406 84.8926 11.5766 86.7608 11.5766C88.8593 11.5766 90.515 12.2716 91.728 13.6617C92.941 15.043 93.521 17.1635 93.4679 20.0234H84.1179C84.1444 21.1302 84.4455 21.9935 85.021 22.6133C85.5965 23.2242 86.3137 23.5297 87.1726 23.5297C87.7569 23.5297 88.2483 23.3703 88.6468 23.0516C89.0452 22.7328 89.3463 22.2193 89.5499 21.5109ZM89.7624 17.7391C89.7358 16.6589 89.4569 15.8398 88.9257 15.282C88.3944 14.7154 87.7481 14.432 86.9866 14.432C86.172 14.432 85.4991 14.7286 84.9679 15.3219C84.4366 15.9151 84.1754 16.7208 84.1843 17.7391H89.7624Z" fill="white"/>
<path d="M95.384 26V6.52969H99.116V13.5422C100.267 12.2318 101.631 11.5766 103.207 11.5766C104.924 11.5766 106.345 12.2008 107.47 13.4492C108.594 14.6888 109.157 16.4729 109.157 18.8016C109.157 21.2099 108.581 23.0648 107.43 24.3664C106.288 25.668 104.898 26.3188 103.26 26.3188C102.454 26.3188 101.657 26.1195 100.869 25.7211C100.09 25.3138 99.4171 24.7161 98.8504 23.9281V26H95.384ZM99.0895 18.6422C99.0895 20.1031 99.3197 21.1833 99.7801 21.8828C100.426 22.8745 101.285 23.3703 102.357 23.3703C103.18 23.3703 103.88 23.0206 104.455 22.3211C105.039 21.6128 105.332 20.5016 105.332 18.9875C105.332 17.376 105.039 16.2161 104.455 15.5078C103.871 14.7906 103.123 14.432 102.211 14.432C101.316 14.432 100.573 14.7818 99.9793 15.4812C99.3861 16.1719 99.0895 17.2255 99.0895 18.6422ZM119.36 21.5109L123.079 22.1352C122.601 23.4987 121.844 24.5391 120.808 25.2562C119.781 25.9646 118.493 26.3188 116.943 26.3188C114.49 26.3188 112.675 25.5174 111.498 23.9148C110.568 22.631 110.103 21.0107 110.103 19.0539C110.103 16.7164 110.714 14.888 111.936 13.5687C113.158 12.2406 114.703 11.5766 116.571 11.5766C118.67 11.5766 120.325 12.2716 121.538 13.6617C122.751 15.043 123.331 17.1635 123.278 20.0234H113.928C113.955 21.1302 114.256 21.9935 114.831 22.6133C115.407 23.2242 116.124 23.5297 116.983 23.5297C117.567 23.5297 118.059 23.3703 118.457 23.0516C118.856 22.7328 119.157 22.2193 119.36 21.5109ZM119.573 17.7391C119.546 16.6589 119.267 15.8398 118.736 15.282C118.205 14.7154 117.558 14.432 116.797 14.432C115.982 14.432 115.309 14.7286 114.778 15.3219C114.247 15.9151 113.986 16.7208 113.995 17.7391H119.573ZM131.822 11.8953V14.8703H129.272V20.5547C129.272 21.7057 129.294 22.3786 129.338 22.5734C129.391 22.7594 129.502 22.9143 129.67 23.0383C129.847 23.1622 130.06 23.2242 130.308 23.2242C130.653 23.2242 131.153 23.1047 131.808 22.8656L132.127 25.7609C131.259 26.1328 130.277 26.3188 129.179 26.3188C128.506 26.3188 127.899 26.2081 127.359 25.9867C126.819 25.7565 126.421 25.4643 126.164 25.1102C125.916 24.7471 125.743 24.2602 125.646 23.6492C125.566 23.2154 125.526 22.3388 125.526 21.0195V14.8703H123.813V11.8953H125.526V9.09297L129.272 6.91484V11.8953H131.822Z" fill="white" fill-opacity="0.75"/>
<path d="M29.6347 29.6347C29.4467 31.2867 28.6543 32.7372 27.4925 33.7781C26.3308 34.8189 24.7997 35.4435 23.1343 35.4435C22.3687 35.4435 21.6166 35.3091 20.8981 35.0473C20.1997 34.7921 18.9976 34.0064 18.3932 33.5027C17.7889 33.9997 16.5801 34.7921 15.8884 35.0473C15.1699 35.3091 14.4178 35.4435 13.6522 35.4435C11.9935 35.4435 10.4624 34.8189 9.29397 33.7781C8.13221 32.7372 7.33981 31.2867 7.15178 29.6347C5.49981 29.4467 4.04929 28.6543 3.00842 27.4925C1.96754 26.3308 1.34302 24.7997 1.34302 23.1343C1.34302 22.3687 1.47732 21.6166 1.73922 20.8981C1.9944 20.1997 2.7801 18.9976 3.28375 18.3932C2.78681 17.7889 1.9944 16.5801 1.73922 15.8884C1.47732 15.1699 1.34302 14.4178 1.34302 13.6522C1.34302 11.9935 1.96754 10.4624 3.00842 9.29397C4.04929 8.13221 5.49981 7.33981 7.15178 7.15178C7.33981 5.49981 8.13221 4.04929 9.29397 3.00842C10.4557 1.96754 11.9868 1.34302 13.6522 1.34302C14.4178 1.34302 15.1699 1.47732 15.8884 1.73922C16.5868 1.9944 17.7889 2.7801 18.3932 3.28375C18.9976 2.78681 20.2064 1.9944 20.8981 1.73922C21.6166 1.47732 22.3687 1.34302 23.1343 1.34302C24.7929 1.34302 26.324 1.96754 27.4925 3.00842C28.6543 4.04929 29.4467 5.49981 29.6347 7.15178C31.2867 7.33981 32.7372 8.13221 33.7781 9.29397C34.8189 10.4557 35.4435 11.9868 35.4435 13.6522C35.4435 14.4178 35.3091 15.1699 35.0473 15.8884C34.7921 16.5868 34.0064 17.7889 33.5027 18.3932C33.9997 18.9976 34.7921 20.2064 35.0473 20.8981C35.3091 21.6166 35.4435 22.3687 35.4435 23.1343C35.4435 24.7929 34.8189 26.324 33.7781 27.4925C32.7372 28.6543 31.2867 29.4467 29.6347 29.6347ZM6.84959 17.856L10.7109 18.0776H10.7176H10.7378H10.7579H10.7781H10.7982H10.8183H10.8385H10.8586H10.8788H10.8989H10.9191H10.9392H10.9594H10.9795H10.9997H11.0198H11.04H11.0601H11.0802H11.1004H11.1205H11.1407H11.1608H11.181H11.2011H11.2213H11.2414H11.2616H11.2817H11.3018H11.322H11.3421H11.3623H11.3824H11.4026H11.4227H11.4429H11.463H11.4832H11.5033H11.5235H11.5436H11.5637H11.5839H11.604H11.6242H11.6443H11.6645H11.6846H11.7048H11.7249H11.7451H11.7652H11.7854H11.8055H11.8256H11.8458H11.8659H11.8861H11.9062H11.9264H11.9465H11.9667H11.9868H12.007L12.0741 18.0843L12.1413 18.091L12.2084 18.0978L12.2756 18.1045L12.3427 18.1112L12.4099 18.1179L12.477 18.1246L12.5442 18.1313L12.6113 18.1381L12.6785 18.1448L12.7456 18.1515L12.8128 18.1582L12.88 18.1649L12.9471 18.1716L13.0143 18.1783L13.0814 18.1851L13.1486 18.1918L13.2157 18.1985L13.2829 18.2052L13.35 18.2119L13.4172 18.2186L13.4843 18.2254L13.5515 18.2321L13.6186 18.2388L13.6858 18.2455L13.7529 18.2522L13.8201 18.2589L13.8873 18.2656L13.9544 18.2724L14.0216 18.2791L14.0887 18.2858L14.1559 18.2925L14.223 18.2992L14.2902 18.3059L14.3573 18.3127L14.4245 18.3194L14.4916 18.3261L14.5588 18.3328L14.6259 18.3395L14.6931 18.3462L14.7602 18.3529L14.8274 18.3597L14.8946 18.3664L14.9617 18.3731L15.0289 18.3798L15.096 18.3865L15.1632 18.3932L15.2303 18.4L15.2975 18.4067L15.3646 18.4134L15.4318 18.4201L15.4989 18.4268L15.5661 18.4335L15.6332 18.4402L15.7004 18.447L15.7675 18.4537L15.8347 18.4604L15.9018 18.4671L15.969 18.4738L16.0362 18.4805L16.1033 18.4872L16.1705 18.494L16.2376 18.5007L16.3048 18.5074L16.2376 18.5141L16.1705 18.5208L16.1033 18.5275L16.0362 18.5343L15.969 18.541L15.9018 18.5477L15.8347 18.5544L15.7675 18.5611L15.7004 18.5678L15.6332 18.5746L15.5661 18.5813L15.4989 18.588L15.4318 18.5947L15.3646 18.6014L15.2975 18.6081L15.2303 18.6148L15.1632 18.6216L15.096 18.6283L15.0289 18.635L14.9617 18.6417L14.8946 18.6484L14.8274 18.6551L14.7602 18.6618L14.6931 18.6686L14.6259 18.6753L14.5588 18.682L14.4916 18.6887L14.4245 18.6954L14.3573 18.7021L14.2902 18.7089L14.223 18.7156L14.1559 18.7223L14.0887 18.729L14.0216 18.7357L13.9544 18.7424L13.8873 18.7491L13.8201 18.7559L13.7529 18.7626L13.6858 18.7693L13.6186 18.776L13.5515 18.7827L13.4843 18.7894L13.4172 18.7962L13.35 18.8029L13.2829 18.8096L13.2157 18.8163L13.1486 18.823L13.0814 18.8297L13.0143 18.8364L12.9471 18.8432L12.88 18.8499L12.8128 18.8566L12.7456 18.8633L12.6785 18.87L12.6113 18.8767L12.5442 18.8835L12.477 18.8902L12.4099 18.8969L12.3427 18.9036L12.2756 18.9103L12.2084 18.917L12.1413 18.9237L12.0741 18.9305L12.007 18.9372H11.9868H11.9667H11.9465H11.9264H11.9062H11.8861H11.8659H11.8458H11.8256H11.8055H11.7854H11.7652H11.7451H11.7249H11.7048H11.6846H11.6645H11.6443H11.6242H11.604H11.5839H11.5637H11.5436H11.5235H11.5033H11.4832H11.463H11.4429H11.4227H11.4026H11.3824H11.3623H11.3421H11.322H11.3018H11.2817H11.2616H11.2414H11.2213H11.2011H11.181H11.1608H11.1407H11.1205H11.1004H11.0802H11.0601H11.04H11.0198H10.9997H10.9795H10.9594H10.9392H10.9191H10.8989H10.8788H10.8586H10.8385H10.8183H10.7982H10.7781H10.7579H10.7378H10.7176H10.7109L6.84959 19.1588L6.769 19.1655C5.44608 19.3065 4.66039 19.9848 4.009 21.1062C3.6128 21.7979 3.41134 22.5299 3.39791 23.329V23.3559C3.39791 24.4975 3.82769 25.5518 4.5328 26.3442C5.90944 27.8148 7.26594 27.8887 9.14623 27.8551C9.11265 29.7421 9.17981 31.0919 10.6572 32.4686C11.4496 33.1804 12.5039 33.6035 13.6455 33.6035H13.6724C14.4715 33.59 15.2035 33.3886 15.8951 32.9924C17.0233 32.341 17.6948 31.5553 17.8359 30.2324L17.8426 30.1518L18.0642 26.2905V26.2837V26.2636V26.2435V26.2233V26.2032V26.183V26.1629V26.1427V26.1226V26.1024V26.0823V26.0621V26.042V26.0218V26.0017V25.9816V25.9614V25.9413V25.9211V25.901V25.8808V25.8607V25.8405V25.8204V25.8002V25.7801V25.76V25.7398V25.7197V25.6995V25.6794V25.6592V25.6391V25.6189V25.5988V25.5786V25.5585V25.5383V25.5182V25.4981V25.4779V25.4578V25.4376V25.4175V25.3973V25.3772V25.357V25.3369V25.3167V25.2966V25.2764V25.2563V25.2362V25.216V25.1959V25.1757V25.1556V25.1354V25.1153V25.0951V25.075V25.0548V25.0347V25.0145V24.9944L18.0709 24.9273L18.0776 24.8601L18.0843 24.7929L18.091 24.7258L18.0978 24.6586L18.1045 24.5915L18.1112 24.5243L18.1179 24.4572L18.1246 24.39L18.1313 24.3229L18.1381 24.2557L18.1448 24.1886L18.1515 24.1214L18.1582 24.0543L18.1649 23.9871L18.1716 23.92L18.1783 23.8528L18.1851 23.7856L18.1918 23.7185L18.1985 23.6513L18.2052 23.5842L18.2119 23.517L18.2186 23.4499L18.2254 23.3827L18.2321 23.3156L18.2388 23.2484L18.2455 23.1813L18.2522 23.1141L18.2589 23.047L18.2656 22.9798L18.2724 22.9127L18.2791 22.8455L18.2858 22.7783L18.2925 22.7112L18.2992 22.644L18.3059 22.5769L18.3127 22.5097L18.3194 22.4426L18.3261 22.3754L18.3328 22.3083L18.3395 22.2411L18.3462 22.174L18.3529 22.1068L18.3597 22.0397L18.3664 21.9725L18.3731 21.9054L18.3798 21.8382L18.3865 21.771L18.3932 21.7039L18.4 21.6367L18.4067 21.5696L18.4134 21.5024L18.4201 21.4353L18.4268 21.3681L18.4335 21.301L18.4402 21.2338L18.447 21.1667L18.4537 21.0995L18.4604 21.0324L18.4671 20.9652L18.4738 20.8981L18.4805 20.8309L18.4872 20.7637L18.494 20.6966L18.5007 20.7637L18.5074 20.8309L18.5141 20.8981L18.5208 20.9652L18.5275 21.0324L18.5343 21.0995L18.541 21.1667L18.5477 21.2338L18.5544 21.301L18.5611 21.3681L18.5678 21.4353L18.5746 21.5024L18.5813 21.5696L18.588 21.6367L18.5947 21.7039L18.6014 21.771L18.6081 21.8382L18.6148 21.9054L18.6216 21.9725L18.6283 22.0397L18.635 22.1068L18.6417 22.174L18.6484 22.2411L18.6551 22.3083L18.6618 22.3754L18.6686 22.4426L18.6753 22.5097L18.682 22.5769L18.6887 22.644L18.6954 22.7112L18.7021 22.7783L18.7089 22.8455L18.7156 22.9127L18.7223 22.9798L18.729 23.047L18.7357 23.1141L18.7424 23.1813L18.7491 23.2484L18.7559 23.3156L18.7626 23.3827L18.7693 23.4499L18.776 23.517L18.7827 23.5842L18.7894 23.6513L18.7962 23.7185L18.8029 23.7856L18.8096 23.8528L18.8163 23.92L18.823 23.9871L18.8297 24.0543L18.8364 24.1214L18.8432 24.1886L18.8499 24.2557L18.8566 24.3229L18.8633 24.39L18.87 24.4572L18.8767 24.5243L18.8835 24.5915L18.8902 24.6586L18.8969 24.7258L18.9036 24.7929L18.9103 24.8601L18.917 24.9273L18.9237 24.9944V25.0145V25.0347V25.0548V25.075V25.0951V25.1153V25.1354V25.1556V25.1757V25.1959V25.216V25.2362V25.2563V25.2764V25.2966V25.3167V25.3369V25.357V25.3772V25.3973V25.4175V25.4376V25.4578V25.4779V25.4981V25.5182V25.5383V25.5585V25.5786V25.5988V25.6189V25.6391V25.6592V25.6794V25.6995V25.7197V25.7398V25.76V25.7801V25.8002V25.8204V25.8405V25.8607V25.8808V25.901V25.9211V25.9413V25.9614V25.9816V26.0017V26.0218V26.042V26.0621V26.0823V26.1024V26.1226V26.1427V26.1629V26.183V26.2032V26.2233V26.2435V26.2636V26.2837V26.2905L19.1454 30.1518L19.1521 30.2324C19.2931 31.5553 19.9713 32.341 21.0928 32.9924C21.7845 33.3886 22.5164 33.59 23.3156 33.6035H23.3424C24.484 33.6035 25.5383 33.1737 26.3308 32.4686C27.8014 31.0919 27.8753 29.7354 27.8417 27.8551C29.7287 27.8887 31.0785 27.8216 32.4551 26.3442C33.167 25.5518 33.59 24.4975 33.59 23.3559V23.329C33.5766 22.5299 33.3751 21.7979 32.9789 21.1062C32.3275 19.9781 31.5418 19.3065 30.2189 19.1655L30.1383 19.1588L26.277 18.9372H26.2703H26.2502H26.23H26.2099H26.1897H26.1696H26.1494H26.1293H26.1091H26.089H26.0689H26.0487H26.0286H26.0084H25.9883H25.9681H25.948H25.9278H25.9077H25.8875H25.8674H25.8472H25.8271H25.807H25.7868H25.7667H25.7465H25.7264H25.7062H25.6861H25.6659H25.6458H25.6256H25.6055H25.5854H25.5652H25.5451H25.5249H25.5048H25.4846H25.4645H25.4443H25.4242H25.404H25.3839H25.3637H25.3436H25.3235H25.3033H25.2832H25.263H25.2429H25.2227H25.2026H25.1824H25.1623H25.1421H25.122H25.1018H25.0817H25.0616H25.0414H25.0213H25.0011H24.981L24.9138 18.9305L24.8467 18.9237L24.7795 18.917L24.7124 18.9103L24.6452 18.9036L24.5781 18.8969L24.5109 18.8902L24.4437 18.8835L24.3766 18.8767L24.3094 18.87L24.2423 18.8633L24.1751 18.8566L24.108 18.8499L24.0408 18.8432L23.9737 18.8364L23.9065 18.8297L23.8394 18.823L23.7722 18.8163L23.7051 18.8096L23.6379 18.8029L23.5708 18.7962L23.5036 18.7894L23.4364 18.7827L23.3693 18.776L23.3021 18.7693L23.235 18.7626L23.1678 18.7559L23.1007 18.7491L23.0335 18.7424L22.9664 18.7357L22.8992 18.729L22.8321 18.7223L22.7649 18.7156L22.6978 18.7089L22.6306 18.7021L22.5635 18.6954L22.4963 18.6887L22.4291 18.682L22.362 18.6753L22.2948 18.6686L22.2277 18.6618L22.1605 18.6551L22.0934 18.6484L22.0262 18.6417L21.9591 18.635L21.8919 18.6283L21.8248 18.6216L21.7576 18.6148L21.6905 18.6081L21.6233 18.6014L21.5562 18.5947L21.489 18.588L21.4218 18.5813L21.3547 18.5746L21.2875 18.5678L21.2204 18.5611L21.1532 18.5544L21.0861 18.5477L21.0189 18.541L20.9518 18.5343L20.8846 18.5275L20.8175 18.5208L20.7503 18.5141L20.6832 18.5074L20.7503 18.5007L20.8175 18.494L20.8846 18.4872L20.9518 18.4805L21.0189 18.4738L21.0861 18.4671L21.1532 18.4604L21.2204 18.4537L21.2875 18.447L21.3547 18.4402L21.4218 18.4335L21.489 18.4268L21.5562 18.4201L21.6233 18.4134L21.6905 18.4067L21.7576 18.4L21.8248 18.3932L21.8919 18.3865L21.9591 18.3798L22.0262 18.3731L22.0934 18.3664L22.1605 18.3597L22.2277 18.3529L22.2948 18.3462L22.362 18.3395L22.4291 18.3328L22.4963 18.3261L22.5635 18.3194L22.6306 18.3127L22.6978 18.3059L22.7649 18.2992L22.8321 18.2925L22.8992 18.2858L22.9664 18.2791L23.0335 18.2724L23.1007 18.2656L23.1678 18.2589L23.235 18.2522L23.3021 18.2455L23.3693 18.2388L23.4364 18.2321L23.5036 18.2254L23.5708 18.2186L23.6379 18.2119L23.7051 18.2052L23.7722 18.1985L23.8394 18.1918L23.9065 18.1851L23.9737 18.1783L24.0408 18.1716L24.108 18.1649L24.1751 18.1582L24.2423 18.1515L24.3094 18.1448L24.3766 18.1381L24.4437 18.1313L24.5109 18.1246L24.5781 18.1179L24.6452 18.1112L24.7124 18.1045L24.7795 18.0978L24.8467 18.091L24.9138 18.0843L24.981 18.0776H25.0011H25.0213H25.0414H25.0616H25.0817H25.1018H25.122H25.1421H25.1623H25.1824H25.2026H25.2227H25.2429H25.263H25.2832H25.3033H25.3235H25.3436H25.3637H25.3839H25.404H25.4242H25.4443H25.4645H25.4846H25.5048H25.5249H25.5451H25.5652H25.5854H25.6055H25.6256H25.6458H25.6659H25.6861H25.7062H25.7264H25.7465H25.7667H25.7868H25.807H25.8271H25.8472H25.8674H25.8875H25.9077H25.9278H25.948H25.9681H25.9883H26.0084H26.0286H26.0487H26.0689H26.089H26.1091H26.1293H26.1494H26.1696H26.1897H26.2099H26.23H26.2502H26.2703H26.277L30.1383 17.856L30.2189 17.8493C31.5418 17.7083 32.3275 17.03 32.9789 15.9086C33.3751 15.2169 33.5766 14.4849 33.59 13.6858V13.6589C33.59 12.5173 33.1602 11.463 32.4551 10.6706C31.0785 9.19995 29.722 9.12608 27.8417 9.15966C27.8753 7.27265 27.8081 5.92287 26.3308 4.54623C25.5383 3.8344 24.484 3.41134 23.3424 3.41134H23.3156C22.5164 3.42477 21.7845 3.62623 21.0928 4.02243C19.9646 4.67382 19.2931 5.45951 19.1521 6.78243L19.1454 6.86302L18.9237 10.7243V10.731V10.7512V10.7713V10.7915V10.8116V10.8318V10.8519V10.8721V10.8922V10.9124V10.9325V10.9527V10.9728V10.9929V11.0131V11.0332V11.0534V11.0735V11.0937V11.1138V11.134V11.1541V11.1743V11.1944V11.2146V11.2347V11.2548V11.275V11.2951V11.3153V11.3354V11.3556V11.3757V11.3959V11.416V11.4362V11.4563V11.4764V11.4966V11.5167V11.5369V11.557V11.5772V11.5973V11.6175V11.6376V11.6578V11.6779V11.6981V11.7182V11.7383V11.7585V11.7786V11.7988V11.8189V11.8391V11.8592V11.8794V11.8995V11.9197V11.9398V11.96V11.9801V12.0002V12.0204L18.917 12.0875L18.9103 12.1547L18.9036 12.2218L18.8969 12.289L18.8902 12.3562L18.8835 12.4233L18.8767 12.4905L18.87 12.5576L18.8633 12.6248L18.8566 12.6919L18.8499 12.7591L18.8432 12.8262L18.8364 12.8934L18.8297 12.9605L18.823 13.0277L18.8163 13.0948L18.8096 13.162L18.8029 13.2291L18.7962 13.2963L18.7894 13.3635L18.7827 13.4306L18.776 13.4978L18.7693 13.5649L18.7626 13.6321L18.7559 13.6992L18.7491 13.7664L18.7424 13.8335L18.7357 13.9007L18.729 13.9678L18.7223 14.035L18.7156 14.1021L18.7089 14.1693L18.7021 14.2364L18.6954 14.3036L18.6887 14.3708L18.682 14.4379L18.6753 14.5051L18.6686 14.5722L18.6618 14.6394L18.6551 14.7065L18.6484 14.7737L18.6417 14.8408L18.635 14.908L18.6283 14.9751L18.6216 15.0423L18.6148 15.1094L18.6081 15.1766L18.6014 15.2437L18.5947 15.3109L18.588 15.3781L18.5813 15.4452L18.5746 15.5124L18.5678 15.5795L18.5611 15.6467L18.5544 15.7138L18.5477 15.781L18.541 15.8481L18.5343 15.9153L18.5275 15.9824L18.5208 16.0496L18.5141 16.1167L18.5074 16.1839L18.5007 16.251L18.494 16.3182L18.4872 16.251L18.4805 16.1839L18.4738 16.1167L18.4671 16.0496L18.4604 15.9824L18.4537 15.9153L18.447 15.8481L18.4402 15.781L18.4335 15.7138L18.4268 15.6467L18.4201 15.5795L18.4134 15.5124L18.4067 15.4452L18.4 15.3781L18.3932 15.3109L18.3865 15.2437L18.3798 15.1766L18.3731 15.1094L18.3664 15.0423L18.3597 14.9751L18.3529 14.908L18.3462 14.8408L18.3395 14.7737L18.3328 14.7065L18.3261 14.6394L18.3194 14.5722L18.3127 14.5051L18.3059 14.4379L18.2992 14.3708L18.2925 14.3036L18.2858 14.2364L18.2791 14.1693L18.2724 14.1021L18.2656 14.035L18.2589 13.9678L18.2522 13.9007L18.2455 13.8335L18.2388 13.7664L18.2321 13.6992L18.2254 13.6321L18.2186 13.5649L18.2119 13.4978L18.2052 13.4306L18.1985 13.3635L18.1918 13.2963L18.1851 13.2291L18.1783 13.162L18.1716 13.0948L18.1649 13.0277L18.1582 12.9605L18.1515 12.8934L18.1448 12.8262L18.1381 12.7591L18.1313 12.6919L18.1246 12.6248L18.1179 12.5576L18.1112 12.4905L18.1045 12.4233L18.0978 12.3562L18.091 12.289L18.0843 12.2218L18.0776 12.1547L18.0709 12.0875L18.0642 12.0204V12.0002V11.9801V11.96V11.9398V11.9197V11.8995V11.8794V11.8592V11.8391V11.8189V11.7988V11.7786V11.7585V11.7383V11.7182V11.6981V11.6779V11.6578V11.6376V11.6175V11.5973V11.5772V11.557V11.5369V11.5167V11.4966V11.4764V11.4563V11.4362V11.416V11.3959V11.3757V11.3556V11.3354V11.3153V11.2951V11.275V11.2548V11.2347V11.2146V11.1944V11.1743V11.1541V11.134V11.1138V11.0937V11.0735V11.0534V11.0332V11.0131V10.9929V10.9728V10.9527V10.9325V10.9124V10.8922V10.8721V10.8519V10.8318V10.8116V10.7915V10.7713V10.7512V10.731V10.7243L17.8426 6.86302L17.8359 6.78243C17.6948 5.45951 17.0166 4.67382 15.8951 4.02243C15.2035 3.62623 14.4715 3.42477 13.6724 3.41134H13.6455C12.5039 3.41134 11.4496 3.84112 10.6572 4.54623C9.18652 5.92287 9.11265 7.27937 9.14623 9.15966C7.25922 9.12608 5.90944 9.19324 4.5328 10.6706C3.82097 11.463 3.39791 12.5173 3.39791 13.6589V13.6858C3.41134 14.4849 3.6128 15.2169 4.009 15.9086C4.66039 17.0367 5.44608 17.7083 6.769 17.8493L6.84959 17.856Z" fill="#33AE33" stroke="#33AE33" stroke-width="1.0073"/>
</svg>
